<svg width="41" height="40" viewBox="0 0 41 40" fill="none" xmlns="http://www.w3.org/2000/svg">
<g id="apple 1" clip-path="url(#clip0_13_247)">
<g id="Group">
<g id="Group_2">
<path id="Vector" d="M27.6279 0C25.4954 0.147499 23.0029 1.51249 21.5504 3.28998C20.2254 4.90247 19.1354 7.29746 19.5604 9.62494C21.8904 9.69744 24.2979 8.29995 25.6929 6.49246C26.9979 4.80997 27.9854 2.42999 27.6279 0Z" fill="white"/>
</g>
</g>
<g id="Group_3">
<g id="Group_4">
<path id="Vector_2" d="M36.0553 13.4199C34.0078 10.8524 31.1304 9.36243 28.4129 9.36243C24.8254 9.36243 23.3079 11.0799 20.8154 11.0799C18.2454 11.0799 16.2929 9.36743 13.1905 9.36743C10.143 9.36743 6.898 11.2299 4.84052 14.4149C1.94803 18.8999 2.44303 27.3323 7.1305 34.5148C8.80799 37.0848 11.048 39.9747 13.978 39.9997C16.5854 40.0247 17.3204 38.3273 20.8529 38.3098C24.3854 38.2898 25.0554 40.0222 27.6579 39.9947C30.5904 39.9722 32.9529 36.7698 34.6303 34.1998C35.8328 32.3573 36.2803 31.4298 37.2128 29.3498C30.4304 26.7673 29.3429 17.1224 36.0553 13.4199Z" fill="white"/>
</g>
</g>
</g>
<defs>
<clipPath id="clip0_13_247">
<rect width="40" height="40" fill="white" transform="translate(0.129608)"/>
</clipPath>
</defs>
</svg>
