<svg width="41" height="40" viewBox="0 0 41 40" fill="none" xmlns="http://www.w3.org/2000/svg">
<g id="instagram 1" clip-path="url(#clip0_13_242)">
<path id="Vector" d="M40.0905 11.7601C39.9968 9.63476 39.6531 8.17359 39.1607 6.90748C38.6528 5.56353 37.8714 4.36029 36.8477 3.36003C35.8474 2.34421 34.6362 1.55487 33.3078 1.05489C32.0344 0.562549 30.5809 0.218854 28.4555 0.125146C26.3143 0.0235031 25.6345 0 20.2038 0C14.773 0 14.0933 0.0235031 11.96 0.11721C9.83463 0.210918 8.37347 0.554918 7.10766 1.04696C5.7634 1.55487 4.56016 2.33627 3.55991 3.36003C2.54408 4.36029 1.75505 5.57146 1.25477 6.89985C0.762424 8.17359 0.418729 9.62682 0.325021 11.7522C0.223378 13.8934 0.199875 14.5732 0.199875 20.0039C0.199875 25.4347 0.223378 26.1144 0.317085 28.2477C0.410793 30.3731 0.754793 31.8342 1.24714 33.1003C1.75505 34.4443 2.54408 35.6475 3.55991 36.6478C4.56016 37.6636 5.77134 38.4529 7.09972 38.9529C8.37347 39.4453 9.82669 39.789 11.9524 39.8827C14.0853 39.9767 14.7654 39.9999 20.1962 39.9999C25.6269 39.9999 26.3067 39.9767 28.44 39.8827C30.5653 39.789 32.0265 39.4453 33.2923 38.9529C35.9805 37.9136 38.1058 35.7882 39.1452 33.1003C39.6372 31.8266 39.9812 30.3731 40.0749 28.2477C40.1686 26.1144 40.1921 25.4347 40.1921 20.0039C40.1921 14.5732 40.1842 13.8934 40.0905 11.7601ZM36.4884 28.0914C36.4023 30.0449 36.0742 31.0998 35.8007 31.8031C35.1286 33.5457 33.7456 34.9287 32.003 35.6008C31.2997 35.8743 30.2372 36.2024 28.2913 36.2882C26.1815 36.3822 25.5488 36.4054 20.2117 36.4054C14.8747 36.4054 14.234 36.3822 12.1318 36.2882C10.1783 36.2024 9.12343 35.8743 8.42017 35.6008C7.553 35.2803 6.76366 34.7724 6.12297 34.1082C5.45878 33.4596 4.95086 32.6782 4.63037 31.811C4.35688 31.1078 4.02875 30.0449 3.94298 28.0994C3.84896 25.9896 3.82577 25.3565 3.82577 20.0195C3.82577 14.6824 3.84896 14.0417 3.94298 11.9399C4.02875 9.98639 4.35688 8.93149 4.63037 8.22823C4.95086 7.36075 5.45878 6.57172 6.1309 5.93072C6.77922 5.26653 7.56063 4.75862 8.42811 4.43843C9.13137 4.16494 10.1942 3.83681 12.1398 3.75073C14.2496 3.65703 14.8826 3.63352 20.2194 3.63352C25.5643 3.63352 26.1971 3.65703 28.2992 3.75073C30.2527 3.83681 31.3076 4.16494 32.0109 4.43843C32.8781 4.75862 33.6674 5.26653 34.3081 5.93072C34.9723 6.57935 35.4802 7.36075 35.8007 8.22823C36.0742 8.93149 36.4023 9.99402 36.4884 11.9399C36.5821 14.0497 36.6056 14.6824 36.6056 20.0195C36.6056 25.3565 36.5821 25.9816 36.4884 28.0914Z" fill="white"/>
<path id="Vector_2" d="M20.2038 9.72852C14.531 9.72852 9.92834 14.3309 9.92834 20.004C9.92834 25.6771 14.531 30.2794 20.2038 30.2794C25.8769 30.2794 30.4792 25.6771 30.4792 20.004C30.4792 14.3309 25.8769 9.72852 20.2038 9.72852ZM20.2038 26.6694C16.5236 26.6694 13.5384 23.6845 13.5384 20.004C13.5384 16.3234 16.5236 13.3385 20.2038 13.3385C23.8843 13.3385 26.8692 16.3234 26.8692 20.004C26.8692 23.6845 23.8843 26.6694 20.2038 26.6694Z" fill="white"/>
<path id="Vector_3" d="M33.2846 9.32218C33.2846 10.6469 32.2105 11.721 30.8855 11.721C29.5608 11.721 28.4866 10.6469 28.4866 9.32218C28.4866 7.99716 29.5608 6.92334 30.8855 6.92334C32.2105 6.92334 33.2846 7.99716 33.2846 9.32218Z" fill="white"/>
</g>
<defs>
<clipPath id="clip0_13_242">
<rect width="40" height="40" fill="white" transform="translate(0.129608)"/>
</clipPath>
</defs>
</svg>
