<svg width="41" height="40" viewBox="0 0 41 40" fill="none" xmlns="http://www.w3.org/2000/svg">
<g id="linkedin 1">
<g id="_x31_0.Linkedin">
<path id="Vector" d="M36.1216 36V35.9988H36.1296V24.2628C36.1296 18.5216 34.8936 14.0988 28.1816 14.0988C24.9548 14.0988 22.7896 15.8696 21.9056 17.548H21.8124V14.6348H15.4484V35.9988H22.0752V25.42C22.0752 22.6348 22.6032 19.9412 26.0524 19.9412C29.4512 19.9412 29.5016 23.12 29.5016 25.5984V36H36.1216Z" fill="white"/>
<path id="Vector_2" d="M4.65761 14.636H11.2924V36H4.65761V14.636Z" fill="white"/>
<path id="Vector_3" d="M7.97241 4C5.85081 4 4.12961 5.7212 4.12961 7.8428C4.12961 9.9644 5.85081 11.7216 7.97241 11.7216C10.094 11.7216 11.8152 9.9644 11.8152 7.8428C11.8136 5.7212 10.0924 4 7.97241 4Z" fill="white"/>
</g>
</g>
</svg>
